<svg xmlns="http://www.w3.org/2000/svg" viewBox="0 0 1024 1024">
<g fill="black">
  <rect x="705" y="201" width="1" height="1"/>
  <rect x="706" y="201" width="1" height="1"/>
  <rect x="710" y="201" width="1" height="1"/>
  <rect x="713" y="201" width="1" height="1"/>
  <rect x="714" y="201" width="1" height="1"/>
  <rect x="718" y="201" width="1" height="1"/>
  <rect x="720" y="201" width="1" height="1"/>
  <rect x="721" y="201" width="1" height="1"/>
  <rect x="722" y="201" width="1" height="1"/>
  <rect x="725" y="201" width="1" height="1"/>
  <rect x="726" y="201" width="1" height="1"/>
  <rect x="728" y="201" width="1" height="1"/>
  <rect x="729" y="201" width="1" height="1"/>
  <rect x="731" y="201" width="1" height="1"/>
  <rect x="732" y="201" width="1" height="1"/>
  <rect x="733" y="201" width="1" height="1"/>
  <rect x="735" y="201" width="1" height="1"/>
  <rect x="736" y="201" width="1" height="1"/>
  <rect x="737" y="201" width="1" height="1"/>
  <rect x="739" y="201" width="1" height="1"/>
  <rect x="740" y="201" width="1" height="1"/>
  <rect x="741" y="201" width="1" height="1"/>
  <rect x="706" y="202" width="1" height="1"/>
  <rect x="709" y="202" width="1" height="1"/>
  <rect x="711" y="202" width="1" height="1"/>
  <rect x="714" y="202" width="1" height="1"/>
  <rect x="716" y="202" width="1" height="1"/>
  <rect x="718" y="202" width="1" height="1"/>
  <rect x="720" y="202" width="1" height="1"/>
  <rect x="724" y="202" width="1" height="1"/>
  <rect x="729" y="202" width="1" height="1"/>
  <rect x="731" y="202" width="1" height="1"/>
  <rect x="733" y="202" width="1" height="1"/>
  <rect x="735" y="202" width="1" height="1"/>
  <rect x="737" y="202" width="1" height="1"/>
  <rect x="739" y="202" width="1" height="1"/>
  <rect x="741" y="202" width="1" height="1"/>
  <rect x="706" y="203" width="1" height="1"/>
  <rect x="711" y="203" width="1" height="1"/>
  <rect x="713" y="203" width="1" height="1"/>
  <rect x="716" y="203" width="1" height="1"/>
  <rect x="717" y="203" width="1" height="1"/>
  <rect x="718" y="203" width="1" height="1"/>
  <rect x="720" y="203" width="1" height="1"/>
  <rect x="721" y="203" width="1" height="1"/>
  <rect x="722" y="203" width="1" height="1"/>
  <rect x="724" y="203" width="1" height="1"/>
  <rect x="725" y="203" width="1" height="1"/>
  <rect x="729" y="203" width="1" height="1"/>
  <rect x="731" y="203" width="1" height="1"/>
  <rect x="732" y="203" width="1" height="1"/>
  <rect x="733" y="203" width="1" height="1"/>
  <rect x="735" y="203" width="1" height="1"/>
  <rect x="736" y="203" width="1" height="1"/>
  <rect x="737" y="203" width="1" height="1"/>
  <rect x="739" y="203" width="1" height="1"/>
  <rect x="741" y="203" width="1" height="1"/>
  <rect x="706" y="204" width="1" height="1"/>
  <rect x="710" y="204" width="1" height="1"/>
  <rect x="714" y="204" width="1" height="1"/>
  <rect x="718" y="204" width="1" height="1"/>
  <rect x="722" y="204" width="1" height="1"/>
  <rect x="724" y="204" width="1" height="1"/>
  <rect x="726" y="204" width="1" height="1"/>
  <rect x="729" y="204" width="1" height="1"/>
  <rect x="731" y="204" width="1" height="1"/>
  <rect x="733" y="204" width="1" height="1"/>
  <rect x="737" y="204" width="1" height="1"/>
  <rect x="739" y="204" width="1" height="1"/>
  <rect x="741" y="204" width="1" height="1"/>
  <rect x="705" y="205" width="1" height="1"/>
  <rect x="706" y="205" width="1" height="1"/>
  <rect x="707" y="205" width="1" height="1"/>
  <rect x="709" y="205" width="1" height="1"/>
  <rect x="710" y="205" width="1" height="1"/>
  <rect x="711" y="205" width="1" height="1"/>
  <rect x="713" y="205" width="1" height="1"/>
  <rect x="714" y="205" width="1" height="1"/>
  <rect x="718" y="205" width="1" height="1"/>
  <rect x="721" y="205" width="1" height="1"/>
  <rect x="725" y="205" width="1" height="1"/>
  <rect x="729" y="205" width="1" height="1"/>
  <rect x="731" y="205" width="1" height="1"/>
  <rect x="732" y="205" width="1" height="1"/>
  <rect x="733" y="205" width="1" height="1"/>
  <rect x="737" y="205" width="1" height="1"/>
  <rect x="739" y="205" width="1" height="1"/>
  <rect x="740" y="205" width="1" height="1"/>
  <rect x="741" y="205" width="1" height="1"/>
  <rect x="705" y="212" width="1" height="1"/>
  <rect x="706" y="212" width="1" height="1"/>
  <rect x="710" y="212" width="1" height="1"/>
  <rect x="713" y="212" width="1" height="1"/>
  <rect x="714" y="212" width="1" height="1"/>
  <rect x="718" y="212" width="1" height="1"/>
  <rect x="720" y="212" width="1" height="1"/>
  <rect x="721" y="212" width="1" height="1"/>
  <rect x="722" y="212" width="1" height="1"/>
  <rect x="725" y="212" width="1" height="1"/>
  <rect x="726" y="212" width="1" height="1"/>
  <rect x="728" y="212" width="1" height="1"/>
  <rect x="729" y="212" width="1" height="1"/>
  <rect x="731" y="212" width="1" height="1"/>
  <rect x="732" y="212" width="1" height="1"/>
  <rect x="733" y="212" width="1" height="1"/>
  <rect x="735" y="212" width="1" height="1"/>
  <rect x="736" y="212" width="1" height="1"/>
  <rect x="737" y="212" width="1" height="1"/>
  <rect x="739" y="212" width="1" height="1"/>
  <rect x="740" y="212" width="1" height="1"/>
  <rect x="741" y="212" width="1" height="1"/>
  <rect x="706" y="213" width="1" height="1"/>
  <rect x="709" y="213" width="1" height="1"/>
  <rect x="711" y="213" width="1" height="1"/>
  <rect x="714" y="213" width="1" height="1"/>
  <rect x="716" y="213" width="1" height="1"/>
  <rect x="718" y="213" width="1" height="1"/>
  <rect x="720" y="213" width="1" height="1"/>
  <rect x="724" y="213" width="1" height="1"/>
  <rect x="729" y="213" width="1" height="1"/>
  <rect x="731" y="213" width="1" height="1"/>
  <rect x="733" y="213" width="1" height="1"/>
  <rect x="735" y="213" width="1" height="1"/>
  <rect x="737" y="213" width="1" height="1"/>
  <rect x="739" y="213" width="1" height="1"/>
  <rect x="741" y="213" width="1" height="1"/>
  <rect x="706" y="214" width="1" height="1"/>
  <rect x="711" y="214" width="1" height="1"/>
  <rect x="713" y="214" width="1" height="1"/>
  <rect x="716" y="214" width="1" height="1"/>
  <rect x="717" y="214" width="1" height="1"/>
  <rect x="718" y="214" width="1" height="1"/>
  <rect x="720" y="214" width="1" height="1"/>
  <rect x="721" y="214" width="1" height="1"/>
  <rect x="722" y="214" width="1" height="1"/>
  <rect x="724" y="214" width="1" height="1"/>
  <rect x="725" y="214" width="1" height="1"/>
  <rect x="729" y="214" width="1" height="1"/>
  <rect x="731" y="214" width="1" height="1"/>
  <rect x="732" y="214" width="1" height="1"/>
  <rect x="733" y="214" width="1" height="1"/>
  <rect x="735" y="214" width="1" height="1"/>
  <rect x="736" y="214" width="1" height="1"/>
  <rect x="737" y="214" width="1" height="1"/>
  <rect x="739" y="214" width="1" height="1"/>
  <rect x="741" y="214" width="1" height="1"/>
  <rect x="706" y="215" width="1" height="1"/>
  <rect x="710" y="215" width="1" height="1"/>
  <rect x="714" y="215" width="1" height="1"/>
  <rect x="718" y="215" width="1" height="1"/>
  <rect x="722" y="215" width="1" height="1"/>
  <rect x="724" y="215" width="1" height="1"/>
  <rect x="726" y="215" width="1" height="1"/>
  <rect x="729" y="215" width="1" height="1"/>
  <rect x="731" y="215" width="1" height="1"/>
  <rect x="733" y="215" width="1" height="1"/>
  <rect x="737" y="215" width="1" height="1"/>
  <rect x="739" y="215" width="1" height="1"/>
  <rect x="741" y="215" width="1" height="1"/>
  <rect x="705" y="216" width="1" height="1"/>
  <rect x="706" y="216" width="1" height="1"/>
  <rect x="707" y="216" width="1" height="1"/>
  <rect x="709" y="216" width="1" height="1"/>
  <rect x="710" y="216" width="1" height="1"/>
  <rect x="711" y="216" width="1" height="1"/>
  <rect x="713" y="216" width="1" height="1"/>
  <rect x="714" y="216" width="1" height="1"/>
  <rect x="718" y="216" width="1" height="1"/>
  <rect x="721" y="216" width="1" height="1"/>
  <rect x="725" y="216" width="1" height="1"/>
  <rect x="729" y="216" width="1" height="1"/>
  <rect x="731" y="216" width="1" height="1"/>
  <rect x="732" y="216" width="1" height="1"/>
  <rect x="733" y="216" width="1" height="1"/>
  <rect x="737" y="216" width="1" height="1"/>
  <rect x="739" y="216" width="1" height="1"/>
  <rect x="740" y="216" width="1" height="1"/>
  <rect x="741" y="216" width="1" height="1"/>
  <rect x="705" y="223" width="1" height="1"/>
  <rect x="706" y="223" width="1" height="1"/>
  <rect x="710" y="223" width="1" height="1"/>
  <rect x="713" y="223" width="1" height="1"/>
  <rect x="714" y="223" width="1" height="1"/>
  <rect x="718" y="223" width="1" height="1"/>
  <rect x="720" y="223" width="1" height="1"/>
  <rect x="721" y="223" width="1" height="1"/>
  <rect x="722" y="223" width="1" height="1"/>
  <rect x="725" y="223" width="1" height="1"/>
  <rect x="726" y="223" width="1" height="1"/>
  <rect x="728" y="223" width="1" height="1"/>
  <rect x="729" y="223" width="1" height="1"/>
  <rect x="731" y="223" width="1" height="1"/>
  <rect x="732" y="223" width="1" height="1"/>
  <rect x="733" y="223" width="1" height="1"/>
  <rect x="735" y="223" width="1" height="1"/>
  <rect x="736" y="223" width="1" height="1"/>
  <rect x="737" y="223" width="1" height="1"/>
  <rect x="739" y="223" width="1" height="1"/>
  <rect x="740" y="223" width="1" height="1"/>
  <rect x="741" y="223" width="1" height="1"/>
  <rect x="706" y="224" width="1" height="1"/>
  <rect x="709" y="224" width="1" height="1"/>
  <rect x="711" y="224" width="1" height="1"/>
  <rect x="714" y="224" width="1" height="1"/>
  <rect x="716" y="224" width="1" height="1"/>
  <rect x="718" y="224" width="1" height="1"/>
  <rect x="720" y="224" width="1" height="1"/>
  <rect x="724" y="224" width="1" height="1"/>
  <rect x="729" y="224" width="1" height="1"/>
  <rect x="731" y="224" width="1" height="1"/>
  <rect x="733" y="224" width="1" height="1"/>
  <rect x="735" y="224" width="1" height="1"/>
  <rect x="737" y="224" width="1" height="1"/>
  <rect x="739" y="224" width="1" height="1"/>
  <rect x="741" y="224" width="1" height="1"/>
  <rect x="706" y="225" width="1" height="1"/>
  <rect x="711" y="225" width="1" height="1"/>
  <rect x="713" y="225" width="1" height="1"/>
  <rect x="716" y="225" width="1" height="1"/>
  <rect x="717" y="225" width="1" height="1"/>
  <rect x="718" y="225" width="1" height="1"/>
  <rect x="720" y="225" width="1" height="1"/>
  <rect x="721" y="225" width="1" height="1"/>
  <rect x="722" y="225" width="1" height="1"/>
  <rect x="724" y="225" width="1" height="1"/>
  <rect x="725" y="225" width="1" height="1"/>
  <rect x="729" y="225" width="1" height="1"/>
  <rect x="731" y="225" width="1" height="1"/>
  <rect x="732" y="225" width="1" height="1"/>
  <rect x="733" y="225" width="1" height="1"/>
  <rect x="735" y="225" width="1" height="1"/>
  <rect x="736" y="225" width="1" height="1"/>
  <rect x="737" y="225" width="1" height="1"/>
  <rect x="739" y="225" width="1" height="1"/>
  <rect x="741" y="225" width="1" height="1"/>
  <rect x="706" y="226" width="1" height="1"/>
  <rect x="710" y="226" width="1" height="1"/>
  <rect x="714" y="226" width="1" height="1"/>
  <rect x="718" y="226" width="1" height="1"/>
  <rect x="722" y="226" width="1" height="1"/>
  <rect x="724" y="226" width="1" height="1"/>
  <rect x="726" y="226" width="1" height="1"/>
  <rect x="729" y="226" width="1" height="1"/>
  <rect x="731" y="226" width="1" height="1"/>
  <rect x="733" y="226" width="1" height="1"/>
  <rect x="737" y="226" width="1" height="1"/>
  <rect x="739" y="226" width="1" height="1"/>
  <rect x="741" y="226" width="1" height="1"/>
  <rect x="705" y="227" width="1" height="1"/>
  <rect x="706" y="227" width="1" height="1"/>
  <rect x="707" y="227" width="1" height="1"/>
  <rect x="709" y="227" width="1" height="1"/>
  <rect x="710" y="227" width="1" height="1"/>
  <rect x="711" y="227" width="1" height="1"/>
  <rect x="713" y="227" width="1" height="1"/>
  <rect x="714" y="227" width="1" height="1"/>
  <rect x="718" y="227" width="1" height="1"/>
  <rect x="721" y="227" width="1" height="1"/>
  <rect x="725" y="227" width="1" height="1"/>
  <rect x="729" y="227" width="1" height="1"/>
  <rect x="731" y="227" width="1" height="1"/>
  <rect x="732" y="227" width="1" height="1"/>
  <rect x="733" y="227" width="1" height="1"/>
  <rect x="737" y="227" width="1" height="1"/>
  <rect x="739" y="227" width="1" height="1"/>
  <rect x="740" y="227" width="1" height="1"/>
  <rect x="741" y="227" width="1" height="1"/>
  <rect x="705" y="234" width="1" height="1"/>
  <rect x="706" y="234" width="1" height="1"/>
  <rect x="710" y="234" width="1" height="1"/>
  <rect x="713" y="234" width="1" height="1"/>
  <rect x="714" y="234" width="1" height="1"/>
  <rect x="718" y="234" width="1" height="1"/>
  <rect x="720" y="234" width="1" height="1"/>
  <rect x="721" y="234" width="1" height="1"/>
  <rect x="722" y="234" width="1" height="1"/>
  <rect x="725" y="234" width="1" height="1"/>
  <rect x="726" y="234" width="1" height="1"/>
  <rect x="728" y="234" width="1" height="1"/>
  <rect x="729" y="234" width="1" height="1"/>
  <rect x="731" y="234" width="1" height="1"/>
  <rect x="732" y="234" width="1" height="1"/>
  <rect x="733" y="234" width="1" height="1"/>
  <rect x="735" y="234" width="1" height="1"/>
  <rect x="736" y="234" width="1" height="1"/>
  <rect x="737" y="234" width="1" height="1"/>
  <rect x="739" y="234" width="1" height="1"/>
  <rect x="740" y="234" width="1" height="1"/>
  <rect x="741" y="234" width="1" height="1"/>
  <rect x="706" y="235" width="1" height="1"/>
  <rect x="709" y="235" width="1" height="1"/>
  <rect x="711" y="235" width="1" height="1"/>
  <rect x="714" y="235" width="1" height="1"/>
  <rect x="716" y="235" width="1" height="1"/>
  <rect x="718" y="235" width="1" height="1"/>
  <rect x="720" y="235" width="1" height="1"/>
  <rect x="724" y="235" width="1" height="1"/>
  <rect x="729" y="235" width="1" height="1"/>
  <rect x="731" y="235" width="1" height="1"/>
  <rect x="733" y="235" width="1" height="1"/>
  <rect x="735" y="235" width="1" height="1"/>
  <rect x="737" y="235" width="1" height="1"/>
  <rect x="739" y="235" width="1" height="1"/>
  <rect x="741" y="235" width="1" height="1"/>
  <rect x="706" y="236" width="1" height="1"/>
  <rect x="711" y="236" width="1" height="1"/>
  <rect x="713" y="236" width="1" height="1"/>
  <rect x="716" y="236" width="1" height="1"/>
  <rect x="717" y="236" width="1" height="1"/>
  <rect x="718" y="236" width="1" height="1"/>
  <rect x="720" y="236" width="1" height="1"/>
  <rect x="721" y="236" width="1" height="1"/>
  <rect x="722" y="236" width="1" height="1"/>
  <rect x="724" y="236" width="1" height="1"/>
  <rect x="725" y="236" width="1" height="1"/>
  <rect x="729" y="236" width="1" height="1"/>
  <rect x="731" y="236" width="1" height="1"/>
  <rect x="732" y="236" width="1" height="1"/>
  <rect x="733" y="236" width="1" height="1"/>
  <rect x="735" y="236" width="1" height="1"/>
  <rect x="736" y="236" width="1" height="1"/>
  <rect x="737" y="236" width="1" height="1"/>
  <rect x="739" y="236" width="1" height="1"/>
  <rect x="741" y="236" width="1" height="1"/>
  <rect x="706" y="237" width="1" height="1"/>
  <rect x="710" y="237" width="1" height="1"/>
  <rect x="714" y="237" width="1" height="1"/>
  <rect x="718" y="237" width="1" height="1"/>
  <rect x="722" y="237" width="1" height="1"/>
  <rect x="724" y="237" width="1" height="1"/>
  <rect x="726" y="237" width="1" height="1"/>
  <rect x="729" y="237" width="1" height="1"/>
  <rect x="731" y="237" width="1" height="1"/>
  <rect x="733" y="237" width="1" height="1"/>
  <rect x="737" y="237" width="1" height="1"/>
  <rect x="739" y="237" width="1" height="1"/>
  <rect x="741" y="237" width="1" height="1"/>
  <rect x="705" y="238" width="1" height="1"/>
  <rect x="706" y="238" width="1" height="1"/>
  <rect x="707" y="238" width="1" height="1"/>
  <rect x="709" y="238" width="1" height="1"/>
  <rect x="710" y="238" width="1" height="1"/>
  <rect x="711" y="238" width="1" height="1"/>
  <rect x="713" y="238" width="1" height="1"/>
  <rect x="714" y="238" width="1" height="1"/>
  <rect x="718" y="238" width="1" height="1"/>
  <rect x="721" y="238" width="1" height="1"/>
  <rect x="725" y="238" width="1" height="1"/>
  <rect x="729" y="238" width="1" height="1"/>
  <rect x="731" y="238" width="1" height="1"/>
  <rect x="732" y="238" width="1" height="1"/>
  <rect x="733" y="238" width="1" height="1"/>
  <rect x="737" y="238" width="1" height="1"/>
  <rect x="739" y="238" width="1" height="1"/>
  <rect x="740" y="238" width="1" height="1"/>
  <rect x="741" y="238" width="1" height="1"/>
</g>
</svg>